<svg id="visual" viewBox="0 0 960 540" width="960" height="540" xmlns="http://www.w3.org/2000/svg" xmlns:xlink="http://www.w3.org/1999/xlink" version="1.1"><rect x="0" y="0" width="960" height="540" fill="#6B9080"></rect><path d="M0 184L137 228L274 267L411 226L549 141L686 149L823 144L960 188L960 541L823 541L686 541L549 541L411 541L274 541L137 541L0 541Z" fill="#cce3de"></path><path d="M0 335L137 308L274 218L411 284L549 235L686 331L823 298L960 337L960 541L823 541L686 541L549 541L411 541L274 541L137 541L0 541Z" fill="#d7eae4"></path><path d="M0 389L137 300L274 280L411 346L549 354L686 278L823 291L960 313L960 541L823 541L686 541L549 541L411 541L274 541L137 541L0 541Z" fill="#e1f1ea"></path><path d="M0 349L137 427L274 358L411 403L549 421L686 436L823 438L960 397L960 541L823 541L686 541L549 541L411 541L274 541L137 541L0 541Z" fill="#ecf8f1"></path><path d="M0 424L137 458L274 487L411 464L549 468L686 496L823 425L960 488L960 541L823 541L686 541L549 541L411 541L274 541L137 541L0 541Z" fill="#f6fff8"></path></svg>