<svg id="visual" viewBox="0 0 960 540" width="960" height="540" xmlns="http://www.w3.org/2000/svg" xmlns:xlink="http://www.w3.org/1999/xlink" version="1.1"><rect x="0" y="0" width="960" height="540" fill="#6B9080"></rect><path d="M0 144L137 194L274 237L411 191L549 97L686 106L823 100L960 149L960 541L823 541L686 541L549 541L411 541L274 541L137 541L0 541Z" fill="#a4c3b2"></path><path d="M0 312L137 283L274 182L411 256L549 201L686 308L823 271L960 315L960 541L823 541L686 541L549 541L411 541L274 541L137 541L0 541Z" fill="#adcbbe"></path><path d="M0 373L137 273L274 251L411 325L549 334L686 249L823 264L960 288L960 541L823 541L686 541L549 541L411 541L274 541L137 541L0 541Z" fill="#b7d3c9"></path><path d="M0 328L137 414L274 338L411 388L549 408L686 425L823 427L960 381L960 541L823 541L686 541L549 541L411 541L274 541L137 541L0 541Z" fill="#c1dbd4"></path><path d="M0 412L137 449L274 482L411 456L549 460L686 491L823 413L960 482L960 541L823 541L686 541L549 541L411 541L274 541L137 541L0 541Z" fill="#cce3de"></path></svg>