<svg id="visual" viewBox="0 0 960 540" width="960" height="540" xmlns="http://www.w3.org/2000/svg" xmlns:xlink="http://www.w3.org/1999/xlink" version="1.1"><path d="M0 39L87 104L175 82L262 50L349 44L436 77L524 60L611 87L698 109L785 60L873 104L960 93L960 0L873 0L785 0L698 0L611 0L524 0L436 0L349 0L262 0L175 0L87 0L0 0Z" fill="#001d3d"></path><path d="M0 266L87 287L175 179L262 293L349 190L436 255L524 233L611 190L698 266L785 239L873 303L960 206L960 91L873 102L785 58L698 107L611 85L524 58L436 75L349 42L262 48L175 80L87 102L0 37Z" fill="#052649"></path><path d="M0 357L87 384L175 433L262 406L349 406L436 363L524 320L611 320L698 352L785 390L873 379L960 401L960 204L873 301L785 237L698 264L611 188L524 231L436 253L349 188L262 291L175 177L87 285L0 264Z" fill="#0d3056"></path><path d="M0 460L87 465L175 482L262 471L349 482L436 498L524 455L611 449L698 455L785 465L873 487L960 455L960 399L873 377L785 388L698 350L611 318L524 318L436 361L349 404L262 404L175 431L87 382L0 355Z" fill="#143a63"></path><path d="M0 541L87 541L175 541L262 541L349 541L436 541L524 541L611 541L698 541L785 541L873 541L960 541L960 453L873 485L785 463L698 453L611 447L524 453L436 496L349 480L262 469L175 480L87 463L0 458Z" fill="#1b4470"></path></svg>