<svg id="visual" viewBox="0 0 960 540" width="960" height="540" xmlns="http://www.w3.org/2000/svg" xmlns:xlink="http://www.w3.org/1999/xlink" version="1.1"><path d="M0 195L192 271L384 125L576 120L768 233L960 276L960 0L768 0L576 0L384 0L192 0L0 0Z" fill="#ffd60a"></path><path d="M0 336L192 363L384 347L576 330L768 395L960 390L960 274L768 231L576 118L384 123L192 269L0 193Z" fill="#ccae18"></path><path d="M0 444L192 428L384 411L576 417L768 460L960 482L960 388L768 393L576 328L384 345L192 361L0 334Z" fill="#9c871c"></path><path d="M0 541L192 541L384 541L576 541L768 541L960 541L960 480L768 458L576 415L384 409L192 426L0 442Z" fill="#70621c"></path></svg>